<svg xmlns="http://www.w3.org/2000/svg" width="1024" height="1024" viewBox="0 0 1024 1024" fill="none">
  <defs>
    <linearGradient id="bg" x1="164" y1="132" x2="860" y2="910" gradientUnits="userSpaceOnUse">
      <stop offset="0" stop-color="#FFFDF8"/>
      <stop offset="0.58" stop-color="#F7F8FB"/>
      <stop offset="1" stop-color="#EEF1F6"/>
    </linearGradient>
    <radialGradient id="glow" cx="0" cy="0" r="1" gradientUnits="userSpaceOnUse" gradientTransform="translate(372 274) rotate(41.5) scale(564 440)">
      <stop offset="0" stop-color="#FFFFFF"/>
      <stop offset="0.5" stop-color="#FFFFFF" stop-opacity="0.82"/>
      <stop offset="1" stop-color="#FFFFFF" stop-opacity="0"/>
    </radialGradient>
    <linearGradient id="orbit" x1="244" y1="694" x2="792" y2="364" gradientUnits="userSpaceOnUse">
      <stop offset="0" stop-color="#C62E2E"/>
      <stop offset="1" stop-color="#8C1717"/>
    </linearGradient>
    <linearGradient id="paperFront" x1="338" y1="282" x2="656" y2="764" gradientUnits="userSpaceOnUse">
      <stop offset="0" stop-color="#FFFFFF"/>
      <stop offset="1" stop-color="#F8FAFD"/>
    </linearGradient>
    <linearGradient id="paperBack" x1="272" y1="244" x2="654" y2="770" gradientUnits="userSpaceOnUse">
      <stop offset="0" stop-color="#F6F7FB"/>
      <stop offset="1" stop-color="#E7EBF1"/>
    </linearGradient>
    <filter id="shadow" x="174" y="180" width="646" height="644" filterUnits="userSpaceOnUse" color-interpolation-filters="sRGB">
      <feFlood flood-opacity="0" result="BackgroundImageFix"/>
      <feColorMatrix in="SourceAlpha" type="matrix" values="0 0 0 0 0 0 0 0 0 0 0 0 0 0 0 0 0 0 127 0" result="hardAlpha"/>
      <feOffset dx="0" dy="18"/>
      <feGaussianBlur stdDeviation="24"/>
      <feColorMatrix type="matrix" values="0 0 0 0 0.106 0 0 0 0 0.145 0 0 0 0 0.224 0 0 0 0.13 0"/>
      <feBlend mode="normal" in2="BackgroundImageFix" result="effect1_dropShadow_0_1"/>
      <feBlend mode="normal" in="SourceGraphic" in2="effect1_dropShadow_0_1" result="shape"/>
    </filter>
  </defs>

  <rect x="96" y="96" width="832" height="832" rx="192" fill="url(#bg)"/>
  <rect x="96" y="96" width="832" height="832" rx="192" fill="url(#glow)"/>
  <rect x="96.5" y="96.5" width="831" height="831" rx="191.5" stroke="#D7DEE8"/>

  <g opacity="0.26">
    <path d="M236 298H788" stroke="#E6EAF0" stroke-width="20" stroke-linecap="round"/>
    <path d="M204 380H756" stroke="#ECEFF4" stroke-width="14" stroke-linecap="round"/>
    <path d="M268 806H742" stroke="#E3E8EF" stroke-width="18" stroke-linecap="round"/>
  </g>

  <g filter="url(#shadow)">
    <rect x="302" y="270" width="388" height="492" rx="78" transform="rotate(-8 302 270)" fill="url(#paperBack)"/>
    <rect x="350" y="246" width="388" height="492" rx="78" fill="url(#paperFront)"/>
    <path d="M650 246H738V334C705.48 334 679.16 307.68 679.16 275.16V246H650Z" fill="#E9EDF3"/>
  </g>

  <ellipse cx="512" cy="538" rx="288" ry="178" transform="rotate(-24 512 538)" stroke="#E9B8B8" stroke-width="22" fill="none" opacity="0.42"/>

  <g>
    <path d="M292 690C334 580 430 490 560 444C637 417 708 414 776 430" stroke="url(#orbit)" stroke-width="40" stroke-linecap="round" fill="none"/>
    <path d="M358 764C410 796 494 810 590 790C679 772 754 726 804 658" stroke="url(#orbit)" stroke-width="40" stroke-linecap="round" fill="none"/>
    <circle cx="782" cy="430" r="28" fill="#A61F1F"/>
    <circle cx="782" cy="430" r="12" fill="#FCE8E8"/>
  </g>

  <g>
    <rect x="430" y="370" width="94" height="302" rx="47" fill="#111827"/>
    <rect x="430" y="370" width="244" height="88" rx="44" fill="#111827"/>
    <rect x="430" y="500" width="206" height="78" rx="39" fill="#111827"/>
    <path d="M560 626H664" stroke="#C9D3DF" stroke-width="22" stroke-linecap="round"/>
    <path d="M560 680H640" stroke="#D5DDE7" stroke-width="18" stroke-linecap="round"/>
  </g>
</svg>
